<?xml version="1.0" standalone="no"?><!DOCTYPE svg PUBLIC "-//W3C//DTD SVG 1.1//EN" "http://www.w3.org/Graphics/SVG/1.1/DTD/svg11.dtd"><svg t="1678348729454" class="icon" viewBox="0 0 1024 1024" version="1.1" xmlns="http://www.w3.org/2000/svg" p-id="9639" xmlns:xlink="http://www.w3.org/1999/xlink" width="32" height="32"><path d="M344.056 647.377c9.149-1.422 18.828 1.391 25.877 8.44 6.054 6.054 8.983 14.05 8.797 21.982v174.763h-60.074l-0.001-104.389-150.176 150.176L126 855.87l148.342-148.343-112.305 0.002v-60.075h181.546z m310.783 7.358c7.17-7.17 17.062-9.957 26.35-8.362h181.545v60.074l-108.816-0.001 143.631 143.631-42.479 42.48-148.954-148.955V851.48h-60.075V676.718c-0.186-7.933 2.744-15.928 8.798-21.983z m51.278 51.711l-0.001 2.954 2.954-2.954h-2.953z m-387.462 1.082l-1.164-0.001 1.164 1.164v-1.163zM853.94 127.93l42.48 42.48L747.88 318.946h114.853v60.074H681.188c-9.287 1.595-19.18-1.192-26.349-8.362-6.054-6.054-8.984-14.05-8.788-21.983h-0.01V173.914h60.075v101.839l147.823-147.822zM173.472 126l145.805 145.805 0.001-97.891h60.075v174.762c0.186 7.933-2.744 15.929-8.798 21.983-7.048 7.048-16.728 9.861-25.876 8.44l-0.473-0.078H162.66v-60.074h118.8L130.993 168.479 173.472 126z m145.805 190.166l-2.781 2.781h2.781v-2.781z" fill="#000000" p-id="9640"></path></svg>