<?xml version="1.0" standalone="no"?><!DOCTYPE svg PUBLIC "-//W3C//DTD SVG 1.1//EN" "http://www.w3.org/Graphics/SVG/1.1/DTD/svg11.dtd"><svg t="1678348709283" class="icon" viewBox="0 0 1024 1024" version="1.1" xmlns="http://www.w3.org/2000/svg" p-id="9406" width="32" height="32" xmlns:xlink="http://www.w3.org/1999/xlink"><path d="M853.333333 640a42.666667 42.666667 0 1 1 0 85.333333h-128v128a42.666667 42.666667 0 1 1-85.333333 0v-170.666666a42.666667 42.666667 0 0 1 42.666667-42.666667h170.666666zM170.666667 640h170.666666a42.666667 42.666667 0 0 1 42.368 37.674667L384 682.666667v170.666666a42.666667 42.666667 0 0 1-85.034667 4.992L298.666667 853.333333v-128H170.666667a42.666667 42.666667 0 0 1-4.992-85.034666L170.666667 640h170.666666-170.666666zM682.666667 128a42.666667 42.666667 0 0 1 42.368 37.674667L725.333333 170.666667v128h128a42.666667 42.666667 0 0 1 4.992 85.034666L853.333333 384h-170.666666a42.666667 42.666667 0 0 1-42.368-37.674667L640 341.333333V170.666667a42.666667 42.666667 0 0 1 42.666667-42.666667zM341.333333 128a42.666667 42.666667 0 0 1 42.666667 42.666667v170.666666a42.666667 42.666667 0 0 1-42.666667 42.666667H170.666667a42.666667 42.666667 0 0 1 0-85.333333h128V170.666667a42.666667 42.666667 0 0 1 42.666666-42.666667z" fill="#212121" p-id="9407"></path></svg>