<svg t="1675566477499" class="icon" viewBox="0 0 1024 1024" version="1.1" xmlns="http://www.w3.org/2000/svg" p-id="1093" width="400" height="400"><path d="M512.2 171.2l210.4 171.2 111.1 90.4H724.6v431.4h-80.3V800c0-36.5-29.7-66.1-66.2-66.1H444.3c-36.5 0-66.2 29.7-66.2 66.1v64.3h-79.4V432.8H190.5l111.1-90.4 210.6-171.2m0-73c-7.3 0-14.7 2.4-20.6 7.2L261.4 292.8 75.3 444.2c-22.3 18.1-8.7 52.7 20.6 52.7h138.9v383.6c0 26.4 22.3 47.8 49.8 47.8h107.7c27.5 0 49.8-21.4 49.8-47.9V800c0-1.2 1-2.1 2.2-2.1h133.8c1.2 0 2.2 1 2.2 2.1v83.7c0 24.7 20.8 44.7 46.5 44.7h111.5c27.8 0 50.4-21.7 50.4-48.4V497h139.8c29.3 0 42.9-34.6 20.6-52.7L763 292.8 532.8 105.5c-5.9-4.9-13.3-7.3-20.6-7.3z" p-id="1094"></path></svg>