<?xml version="1.0" standalone="no"?><!DOCTYPE svg PUBLIC "-//W3C//DTD SVG 1.1//EN" "http://www.w3.org/Graphics/SVG/1.1/DTD/svg11.dtd"><svg t="1677806684596" class="icon" viewBox="0 0 1024 1024" version="1.1" xmlns="http://www.w3.org/2000/svg" p-id="6373" xmlns:xlink="http://www.w3.org/1999/xlink" width="78" height="78"><path d="M768 341.333333h-42.666667v-85.333333c0-117.76-95.573333-213.333333-213.333333-213.333333S298.666667 138.24 298.666667 256v85.333333h-42.666667c-47.146667 0-85.333333 38.186667-85.333333 85.333334v426.666666c0 47.146667 38.186667 85.333333 85.333333 85.333334h512c47.146667 0 85.333333-38.186667 85.333333-85.333334V426.666667c0-47.146667-38.186667-85.333333-85.333333-85.333334zM512 725.333333c-47.146667 0-85.333333-38.186667-85.333333-85.333333s38.186667-85.333333 85.333333-85.333333 85.333333 38.186667 85.333333 85.333333-38.186667 85.333333-85.333333 85.333333z m132.266667-384H379.733333v-85.333333c0-72.96 59.306667-132.266667 132.266667-132.266667 72.96 0 132.266667 59.306667 132.266667 132.266667v85.333333z" p-id="6374"></path></svg>