<svg t="1675579852089" class="icon" viewBox="0 0 1024 1024" version="1.1" xmlns="http://www.w3.org/2000/svg" p-id="1242" width="400" height="400"><path d="M850.8 576c-14.3 0-26.9 9.5-30.8 23.2-3.6 12.7-8 25.1-13.1 37.3-16.1 38.1-39.2 72.3-68.6 101.7-29.4 29.4-63.6 52.5-101.7 68.6C597.1 823.6 555.2 832 512 832s-85.1-8.5-124.5-25.1c-38.1-16.1-72.3-39.2-101.7-68.6-29.4-29.4-52.5-63.6-68.6-101.7-4.1-9.7-7.7-19.6-10.8-29.5h55.1l-93.3-125.8L74.9 607h64.9C182.2 773.1 332.7 896 512 896c175.8 0 324-118.1 369.5-279.3 5.8-20.4-9.5-40.7-30.7-40.7zM173.2 448.7c14.3 0 26.9-9.5 30.8-23.2 3.6-12.7 8-25.3 13.2-37.5 16.1-38.1 39.2-72.3 68.6-101.7 29.4-29.4 63.6-52.5 101.7-68.6 39.4-16.7 81.3-25.1 124.5-25.1s85.1 8.5 124.5 25.1c38.1 16.1 72.3 39.2 101.7 68.6 29.4 29.4 52.5 63.6 68.6 101.7 4.7 11.2 8.8 22.6 12.2 34.2h-58L854.3 548l93.3-125.8h-62.3C844.7 253.6 693 128.4 512 128.4c-175.9 0-324.1 118.2-369.6 279.5-5.8 20.5 9.6 40.8 30.8 40.8z" p-id="1243" fill="#bfbfbf"></path></svg>